:SAMPLES-PER-SECOND 24
:FULLY-SPECIFIED
:DEGREES
335
root  2.57571 38.3768 23.7167 5.53394 -68.503 -6.90213
RightUpLeg  -8.02596 1.90784 -7.98221
RightLeg  33.3047 0.710721 0.253705
RightFoot  -17.3806 0.393412 9.67672
RightToes  -2.08645e-008 3.77894e-005 6.81332e-007
Spine  4.18487 0.36386 2.30718
Spine1  2.0067 0.545432 -0.146673
HEad  -34.8699 43.9225 -23.4155
LeftShoulder1  6.17729 -12.3005 -33.0853
LeftArm  7.68606 7.37055 -31.9644
LeftForeArm  143.235 -76.6442 -134.231
LeftHand  -0.605414 -2.96832 8.64086
RightShoulder  3.65127 6.6007 30.2255
RightArm  17.9437 -19.4577 29.8047
RightForeArm  115.499 79.7771 107.886
RightHand  -0.448583 7.58219 -4.37057
LeftUpLeg  -10.8432 -8.18905 15.7078
LeftLeg  28.41 13.9732 8.38728
LeftFoot  -6.40503 0.800427 -17.5667
LeftToes  1.24767e-006 1.47042e-008 1.32732e-009
336
root  2.80607 37.5936 23.1526 3.63965 -68.7413 -4.87527
RightUpLeg  -10.3288 3.90955 -7.33074
RightLeg  37.343 -2.42038 -2.23852
RightFoot  -21.4828 0.540996 7.66295
RightToes  -2.08645e-008 3.77894e-005 6.81332e-007
Spine  4.51831 0.564311 2.46831
Spine1  2.94839 1.13256 -1.97084
HEad  -39.134 42.1124 -25.0507
LeftShoulder1  6.60384 -12.624 -34.9264
LeftArm  7.62911 5.33216 -28.6413
LeftForeArm  151.915 -76.3035 -137.278
LeftHand  -0.634856 -3.19216 8.82845
RightShoulder  3.73365 6.61937 30.9832
RightArm  15.2397 -17.9484 30.7575
RightForeArm  113.072 80.0703 103.65
RightHand  -0.527238 7.77096 -5.0086
LeftUpLeg  -11.2655 -9.50929 15.6175
LeftLeg  29.2201 15.2613 9.37946
LeftFoot  -10.9798 0.127662 -18.3801
LeftToes  1.24767e-006 1.47042e-008 1.32732e-009
337
root  3.08215 37.7865 22.7758 1.4231 -66.5799 -1.7518
RightUpLeg  -10.7318 5.1777 -7.61411
RightLeg  36.4552 -5.10812 -4.26703
RightFoot  -20.7539 0.597891 8.99283
RightToes  -2.08645e-008 3.77894e-005 6.81332e-007
Spine  4.58537 -0.3518 0.471547
Spine1  3.28963 -0.0156605 -1.021
HEad  -43.8278 40.1211 -27.4037
LeftShoulder1  6.91799 -12.9246 -36.0673
LeftArm  5.51994 11.8236 -28.8121
LeftForeArm  153.061 -76.238 -137.725
LeftHand  -0.579211 -3.02987 8.2174
RightShoulder  3.87717 6.7413 31.9552
RightArm  12.2375 -21.4648 32.7695
RightForeArm  116.533 79.986 106.302
RightHand  -0.502958 7.66174 -4.82892
LeftUpLeg  -13.4936 -9.3555 15.1406
LeftLeg  28.4732 13.9191 8.36835
LeftFoot  -7.81177 0.595202 -17.8348
LeftToes  1.24767e-006 1.47042e-008 1.32732e-009
338
root  3.42219 38.9196 22.7857 1.00635 -64.1981 0.234985
RightUpLeg  -9.28603 3.25286 -8.94761
RightLeg  29.7844 -5.61783 -3.68346
RightFoot  -14.809 0.208574 9.94456
RightToes  -2.08645e-008 3.77894e-005 6.81332e-007
Spine  4.24003 -1.12659 0.09875
Spine1  2.03425 -0.918092 -0.767069
HEad  -43.8183 38.8402 -27.6965
LeftShoulder1  7.10436 -13.1018 -36.7202
LeftArm  4.06085 21.9171 -31.58
LeftForeArm  144.952 -76.8641 -133.824
LeftHand  -0.601976 -2.12305 9.50881
RightShoulder  3.89429 6.72064 32.201
RightArm  11.018 -28.463 34.0952
RightForeArm  122.684 79.5398 113.03
RightHand  -0.445316 7.18616 -4.45956
LeftUpLeg  -14.6472 -5.0803 13.8096
LeftLeg  22.9308 11.7861 5.71709
LeftFoot  1.50483 1.74746 -15.6676
LeftToes  1.24767e-006 1.47042e-008 1.32732e-009
339
root  3.83327 40.3691 23.1306 2.16016 -65.2417 1.1575
RightUpLeg  -8.87556 1.42272 -10.7239
RightLeg  21.437 -2.0096 -1.08692
RightFoot  -4.43311 -0.730637 11.5659
RightToes  -2.08645e-008 3.77894e-005 6.81332e-007
Spine  2.27849 -0.349356 2.04789
Spine1  1.07577 0.203147 -2.90426
HEad  -39.8079 38.9894 -25.5112
LeftShoulder1  7.33694 -13.3082 -37.55
LeftArm  1.73159 31.7012 -33.946
LeftForeArm  145.142 -76.4357 -135.38
LeftHand  -0.586185 -2.18114 9.18782
RightShoulder  3.82872 6.62926 31.8958
RightArm  12.7727 -33.9723 32.6622
RightForeArm  125.314 79.2349 116.327
RightHand  -0.346684 6.99949 -3.59607
LeftUpLeg  -12.9848 4.11331 11.6398
LeftLeg  14.4645 7.71047 2.73575
LeftFoot  10.14 3.03119 -16.2177
LeftToes  1.24767e-006 1.47042e-008 1.32732e-009
340
root  4.3093 41.4081 23.4986 2.79248 -68.7652 2.05615
RightUpLeg  -10.0827 0.609302 -11.7345
RightLeg  15.8542 0.330388 -0.689888
RightFoot  4.46583 -1.83141 13.472
RightToes  -2.08645e-008 3.77894e-005 6.81332e-007
Spine  0.257496 1.15361 2.75895
Spine1  1.04352 1.91681 -4.21127
HEad  -36.3038 40.2626 -23.0055
LeftShoulder1  7.20287 -13.2209 -36.9921
LeftArm  -2.45909 40.2037 -36.3266
LeftForeArm  155.811 -74.057 -144.055
LeftHand  -0.323708 -2.90361 4.7587
RightShoulder  3.83932 6.68296 31.7995
RightArm  17.148 -35.1676 28.5584
RightForeArm  123.552 79.3066 115.154
RightHand  -0.21514 7.23376 -2.33515
LeftUpLeg  -10.4532 9.53075 10.6805
LeftLeg  10.2479 6.03539 0.552231
LeftFoot  12.9609 4.10012 -19.2884
LeftToes  1.24767e-006 1.47042e-008 1.32732e-009
341
root  4.90388 41.7896 23.775 1.5625 -71.037 3.43546
RightUpLeg  -11.2357 0.0350715 -11.9839
RightLeg  15.6192 -6.1958 -2.96678
RightFoot  7.15871 -1.42234 8.98795
RightToes  -2.08645e-008 3.77894e-005 6.81332e-007
Spine  -0.205316 1.67944 2.07994
Spine1  1.43421 2.40875 -3.54239
HEad  -35.0682 41.6508 -21.7483
LeftShoulder1  6.69592 -12.7887 -35.0715
LeftArm  -3.93417 44.8834 -36.4594
LeftForeArm  162.079 -71.3381 -150.304
LeftHand  -0.177162 -3.14242 2.6507
RightShoulder  3.89092 6.79361 31.8959
RightArm  21.3309 -33.4285 25.1784
RightForeArm  119.378 79.5601 111.525
RightHand  -0.164862 7.39935 -1.85675
LeftUpLeg  -8.97466 11.7338 9.45496
LeftLeg  13.1461 4.10394 0.581468
LeftFoot  11.4162 4.18714 -20.9581
LeftToes  1.24767e-006 1.47042e-008 1.32732e-009
342
root  5.63841 41.5256 24.0547 0.349121 -71.3832 3.71661
RightUpLeg  -12.6144 0.0192735 -12.0231
RightLeg  22.1577 -14.8121 -6.86025
RightFoot  5.86144 -0.411059 2.92274
RightToes  -2.08645e-008 3.77894e-005 6.81332e-007
Spine  0.613971 1.48933 3.1176
Spine1  2.07053 2.39312 -3.7165
HEad  -34.7742 41.9399 -21.3622
LeftShoulder1  6.42247 -12.5422 -34.0179
LeftArm  -0.15715 44.264 -31.4917
LeftForeArm  161.889 -69.4499 -153.067
LeftHand  -0.269235 -2.73832 4.07143
RightShoulder  3.8617 6.79611 31.6007
RightArm  23.0172 -32.068 24.1112
RightForeArm  117.889 79.5914 110.635
RightHand  -0.160257 7.23838 -1.83061
LeftUpLeg  -8.05637 10.7147 8.41712
LeftLeg  19.9717 1.16426 0.793514
LeftFoot  8.28169 3.60987 -21.0176
LeftToes  1.24767e-006 1.47042e-008 1.32732e-009
343
root  6.35389 40.6211 24.2754 -1.14844 -71.8414 3.86636
RightUpLeg  -13.6947 -0.348899 -11.9548
RightLeg  30.283 -17.0089 -10.674
RightFoot  3.07741 -0.616672 5.03773
RightToes  -2.08645e-008 3.77894e-005 6.81332e-007
Spine  2.22281 1.54744 3.84684
Spine1  1.97424 2.56882 -4.30504
HEad  -34.4292 41.6895 -21.4752
LeftShoulder1  6.35858 -12.5124 -33.6958
LeftArm  2.94301 40.4762 -26.8492
LeftForeArm  157.777 -69.5207 -152.431
LeftHand  -0.298698 -2.74194 4.48804
RightShoulder  3.74321 6.73526 30.6547
RightArm  23.0539 -31.2907 23.8024
RightForeArm  118.166 79.4941 111.575
RightHand  -0.166814 7.08664 -1.90625
LeftUpLeg  -6.03624 8.36264 7.98578
LeftLeg  25.1671 -2.69604 -1.04573
LeftFoot  0.809067 1.98644 -18.5712
LeftToes  1.24767e-006 1.47042e-008 1.32732e-009
344
root  6.95963 39.2621 24.3488 -5.87085 -71.3592 7.43497
RightUpLeg  -12.9554 -1.23161 -13.43
RightLeg  34.1669 -17.01 -12.2752
RightFoot  -4.02253 -0.72784 11.0074
RightToes  -2.08645e-008 3.77894e-005 6.81332e-007
Spine  4.0662 1.47122 0.735739
Spine1  1.0407 1.92093 -2.63894
HEad  -34.2337 41.5629 -21.6546
LeftShoulder1  6.27667 -12.4051 -33.4534
LeftArm  3.8552 34.4296 -24.9899
LeftForeArm  149.796 -72.6586 -145.98
LeftHand  -0.365168 -3.16452 5.18648
RightShoulder  3.64714 6.69051 29.8596
RightArm  21.9901 -29.9754 23.9275
RightForeArm  113.126 79.8682 105.784
RightHand  -0.269951 7.29608 -2.82213
LeftUpLeg  -4.35277 5.1648 5.87592
LeftLeg  27.2348 -2.67074 -1.13832
LeftFoot  -10.7247 0.136807 -14.5071
LeftToes  1.24767e-006 1.47042e-008 1.32732e-009
345
root  7.56487 38.0887 24.362 -9.24072 -68.3704 10.1489
RightUpLeg  -11.1706 -3.72222 -15.7303
RightLeg  34.4345 -16.5868 -12.1118
RightFoot  -12.5033 0.0494505 14.1089
RightToes  -2.08645e-008 3.77894e-005 6.81332e-007
Spine  4.78232 0.767213 -1.79086
Spine1  1.6718 0.817276 -1.14849
HEad  -35.2688 40.0426 -21.2769
LeftShoulder1  6.64169 -12.6595 -35.0644
LeftArm  4.28784 23.8154 -22.4522
LeftForeArm  140.268 -76.6292 -133.547
LeftHand  -0.554994 -2.52112 8.39743
RightShoulder  3.7021 6.69444 30.3939
RightArm  18.2442 -29.8736 25.488
RightForeArm  102.301 80.3129 93.0935
RightHand  -0.446738 7.57192 -4.35558
LeftUpLeg  -5.76108 -1.81846 2.35884
LeftLeg  30.0939 3.68583 2.71285
LeftFoot  -18.3816 -0.686287 -12.7342
LeftToes  1.24767e-006 1.47042e-008 1.32732e-009
